<?xml version="1.0" standalone="no"?>
<!DOCTYPE svg PUBLIC "-//W3C//DTD SVG 20010904//EN"
 "http://www.w3.org/TR/2001/REC-SVG-20010904/DTD/svg10.dtd">
<svg version="1.0" xmlns="http://www.w3.org/2000/svg"
 width="1138.000000pt" height="1138.000000pt" viewBox="0 0 1138.000000 1138.000000"
 preserveAspectRatio="xMidYMid meet">

<g transform="translate(0.000000,1138.000000) scale(0.100000,-0.100000)"
fill="#FFFFFF" stroke="none">
<path d="M260 9907 c0 -2 6 -17 14 -33 8 -16 112 -272 231 -569 208 -518 390
-969 720 -1790 84 -209 219 -544 300 -745 81 -201 216 -536 300 -745 84 -209
251 -623 370 -920 119 -297 272 -677 340 -845 149 -369 344 -853 620 -1540
354 -880 432 -1074 446 -1102 l12 -28 773 0 774 0 14 23 c8 12 85 198 171 412
86 215 213 530 282 700 69 171 204 506 300 745 96 239 222 552 280 695 58 143
211 523 340 845 129 322 282 702 340 845 58 143 184 456 280 695 96 239 240
597 320 795 80 198 228 567 330 820 102 253 237 588 300 745 63 157 175 436
249 620 74 184 139 343 144 352 6 10 10 20 10 23 0 10 -1444 5 -1509 -6 -179
-29 -332 -149 -430 -339 -21 -41 -68 -154 -104 -250 -70 -190 -242 -648 -557
-1495 -111 -297 -238 -637 -282 -755 -44 -118 -151 -406 -238 -640 -87 -234
-236 -632 -330 -885 -95 -253 -208 -557 -252 -675 -44 -118 -109 -301 -144
-407 -89 -269 -244 -854 -244 -920 0 -49 -27 -5 -50 80 -82 305 -213 721 -320
1017 -127 350 -1809 4830 -1836 4889 -71 158 -162 259 -288 321 -137 68 -160
70 -968 70 -390 0 -708 -2 -708 -3z"/>
<path d="M9390 4323 c-271 -16 -530 -99 -733 -235 -274 -181 -508 -491 -607
-803 -53 -167 -63 -242 -63 -450 -1 -203 13 -303 60 -450 38 -120 140 -325
209 -420 214 -297 517 -495 909 -594 136 -34 427 -37 582 -5 213 43 465 154
628 277 171 128 309 289 412 482 102 189 147 330 168 520 19 164 19 220 0 375
-47 408 -285 799 -641 1053 -231 165 -615 269 -924 250z"/>
</g>
</svg>
